/* XPM */
static char *_e98be30d7c24059fd152d4ebffe385bwC9a70DyHWVvHX0p[] = {
/* columns rows colors chars-per-pixel */
"50 50 215 2 ",
"   c #1D6F9F",
".  c #196EAB",
"X  c #1673AC",
"o  c #1B74AC",
"O  c #1778AB",
"+  c #0E79BA",
"@  c #1475B4",
"#  c #1A75B4",
"$  c #1379B6",
"%  c #1C7AB6",
"&  c #1176BA",
"*  c #1A76BC",
"=  c #157BBD",
"-  c #1A7BBD",
";  c #2376AB",
":  c #247BAE",
">  c #2D7CAC",
",  c #2A76A7",
"<  c #2377B1",
"1  c #237CB3",
"2  c #2A7DB3",
"3  c #227DBB",
"4  c #2B7EBA",
"5  c #0C79C3",
"6  c #0E7CCB",
"7  c #157CC3",
"8  c #1A7DC1",
"9  c #157DC9",
"0  c #1175C3",
"q  c #157ED1",
"w  c #227EC4",
"e  c #1680BD",
"r  c #1C81BD",
"t  c #3281AF",
"y  c #3980AA",
"u  c #2B81B5",
"i  c #2281BE",
"p  c #2D83BC",
"a  c #2E88BE",
"s  c #2580B4",
"d  c #3483B4",
"f  c #3A85B5",
"g  c #3285BC",
"h  c #348ABE",
"j  c #3A8BBC",
"k  c #3789B6",
"l  c #3E91BB",
"z  c #438EBB",
"x  c #458AB4",
"c  c #4993BC",
"v  c #7BABBF",
"b  c #0E81C9",
"n  c #1582C3",
"m  c #1B81C3",
"M  c #1481CC",
"N  c #1B81C9",
"B  c #1383D2",
"V  c #2382C3",
"C  c #2083C9",
"Z  c #2A87C4",
"A  c #348BC2",
"S  c #3488C1",
"D  c #3690C2",
"F  c #4A95C4",
"G  c #4B9AC4",
"H  c #4897C7",
"J  c #569CC6",
"K  c #5F9DC5",
"L  c #579CCA",
"P  c #49A0CD",
"I  c #5CA4CD",
"U  c #5EA2C7",
"Y  c #5CA4D2",
"T  c #58A8D5",
"R  c #6DAEC6",
"E  c #62A3CD",
"W  c #6CACCC",
"Q  c #64A4C7",
"!  c #76ADC7",
"~  c #6AB1CF",
"^  c #72B0CA",
"/  c #7CB4CA",
"(  c #7EB9CE",
")  c #7AB2C5",
"_  c #67A7D2",
"`  c #63ABD4",
"'  c #63AEDA",
"]  c #66B3DC",
"[  c #6CB5DE",
"{  c #6DB7D8",
"}  c #74B4D5",
"|  c #7DBCDD",
" . c #77B9D9",
".. c #6DBCE6",
"X. c #6BBFEB",
"o. c #68B8E2",
"O. c #7BBEE3",
"+. c #70BBEA",
"@. c #74B9E2",
"#. c #77C1DF",
"$. c #6FC0EB",
"%. c #7DC3E4",
"&. c #74C3EC",
"*. c #7BC3EA",
"=. c #76C3E3",
"-. c #77C8F3",
";. c #86B0BE",
":. c #84A9BB",
">. c #84B3C5",
",. c #82B5CA",
"<. c #8AB7CA",
"1. c #84BACD",
"2. c #8BBBCC",
"3. c #94BDCC",
"4. c #98BECC",
"5. c #90B3C6",
"6. c #85BCD4",
"7. c #8BBDD2",
"8. c #8BBED8",
"9. c #82BFDA",
"0. c #93BED3",
"q. c #98BED1",
"w. c #85BFE1",
"e. c #89C0CE",
"r. c #94C1CF",
"t. c #99C2CE",
"y. c #86C0D4",
"u. c #8CC2D5",
"i. c #84C2DB",
"p. c #8BC4DB",
"a. c #84C9DB",
"s. c #8DCADC",
"d. c #94C3D4",
"f. c #9BC4D4",
"g. c #94C9D7",
"h. c #9CC9D5",
"j. c #93C5DA",
"k. c #9AC6DB",
"l. c #93CADD",
"z. c #9CCADC",
"x. c #98D0DF",
"c. c #A1C6CF",
"v. c #A2C6D4",
"b. c #A3CAD5",
"n. c #ACCDD6",
"m. c #A2C7D8",
"M. c #A3CCDC",
"N. c #AACEDC",
"B. c #B0CEDA",
"V. c #A4D1DD",
"C. c #ACD3DD",
"Z. c #B3D2DC",
"A. c #BBD6DC",
"S. c #BCDADE",
"D. c #B5D7D9",
"F. c #84C4E4",
"G. c #8BC5E3",
"H. c #84C9E2",
"J. c #8CCAE4",
"K. c #85C6E9",
"L. c #84CAEA",
"P. c #8CCBED",
"I. c #92C6E1",
"U. c #94CCE3",
"Y. c #9CCDE2",
"T. c #93CCEC",
"R. c #9ECEEA",
"E. c #96D0E1",
"W. c #9CD1E4",
"Q. c #96D2EC",
"!. c #9BD2ED",
"~. c #87CDF4",
"^. c #90CFF0",
"/. c #94D3F2",
"(. c #9AD5F3",
"). c #9ED7FB",
"_. c #94DAFE",
"`. c #99DCFE",
"'. c #93D6F9",
"]. c #8BD2E8",
"[. c #A2CDE2",
"{. c #A9CFE1",
"}. c #B2CFE1",
"|. c #A4D2E4",
" X c #ACD3E4",
".X c #ADD9E4",
"XX c #A4D4E9",
"oX c #ABD6E9",
"OX c #ACDAEB",
"+X c #B2D5E4",
"@X c #B9D6E3",
"#X c #B4D9E4",
"$X c #BBDBE3",
"%X c #B2D6E9",
"&X c #B4DBEA",
"*X c #BBDBEA",
"=X c #BBD6E9",
"-X c #A2D5F2",
";X c #ABDAF2",
":X c #A5DAFA",
">X c #A2D9F3",
",X c #B0DEF3",
"<X c #BDDEF2",
"1X c #BDE1EC",
"2X c #B6E1E8",
"3X c #AAE2F8",
"4X c #B4E0F0",
"5X c #B6E3F6",
"6X c #C1DBDC",
"7X c #C3DDE1",
"8X c #C1DFEA",
"9X c #C1E1EB",
"0X c #C0E2E4",
"qX c #C1E4F1",
"wX c #C6E8F2",
/* pixels */
"% - - - - - - - % - 8 - 0 M B 5 = m $ e m + e $ e e e e e = = = n b b M q 9 9 7 m $ $ - - - * 8 - - ",
"% - - 8 8 8 m m V @ @ 8 8 7 0 7 = e = = = 7 N m m = = = = - e m n n 7 0 7 8 8 8 = m m m 8 8 8 7 8 8 ",
"- - = 7 7 n 7 7 m - V V 3 % 1 % 8 & 8 8 & 8 8 = 8 8 m 8 - - 8 m @ % 3 3 3 i 3 % V 7 = 7 8 7 8 8 8 8 ",
"8 8 7 7 9 9 9 9 & @ 1 < ; > t > p X Z A p S 4 4 S g p p p p 3 o 2 2 > , , t d 2 3 - * 7 7 7 7 8 = - ",
"7 0 7 9 M M 9 m C 3 S T [ } | i.U x E O.F.P.P.(.T.w.} } O.O.` J x K } i.J.P.%.[ ; 4 w 8 7 8 n = = = ",
"7 7 7 9 7 0 = - X g ' ~.(.XXXXXX>X9.p.!.XXz.z.XXOXXXz.j.u.y.6.( :X;XOX|.W.W.Q.P.Y g . * C 7 = m = - ",
"9 7 7 8 - @ % u j ` ^.(.XXOX#Xm.XXl.u.|.OX X#X2Xb.V.V.d.,.) 6.j.oX+X XC.C. XOX>X).K , < V = & m 8 8 ",
"9 7 7 w 3 2 f c _.T.G.l.M.#X&XC.z.W.d.z..XC.+XC.C.C.M.z.g.j.l.k.1X$XZ.Z.C.n.V.XX;XT._ f < - 8 & 7 8 ",
"6 N * 1 , E G.-X-X;X|.3.M.C.+X XXX8.k.XXoX X X&XN. XN.|.XXl.I.,X9XS.A.Z.@X=X&X%X X;X!./.F < 8 7 - - ",
"6 7 # d U T.;X%X X&X+X#X4.N.N. X0.0.[. X X%X#X#X#X+XN.|.;X[.Y.&X0X6X$X*X<X<X*X=X&X.XW.Q.*.h 3 - 8 8 ",
"9 7 # f w.;X#Xn.$XZ.wX Xt.;.m.t.4.4.n.N.n.Z.Z.Z.Z.+XC.n.N.f.M.1XS.S.1X1X<X<X*X#XZ.C.C.W.`.d # 8 - - ",
"M m 4 z !.oXZ.Z.A.S.*X*Xf.V.&X&X+Xc.c.b.n.C.C.Z.+X+XC.h.d.3.f.#XD.D.$X&X&X%X+X+Xn.n.C.U.`.> # 8 - - ",
"9 = 1 z >X|.N.$XZ.@Xn.v.v.&X*X1X1XV.h.h.h.|.|.OX4X|.g.d.g.g.u.d.C.#X&X+X X{.{.B.Z.n.C.W.P.d i 8 8 8 ",
"9 & : x (.|.N.+XqX*X X3.&X&X9X$X+X.X|.d.1.l.E.E.U.s.p.l.E.E.u.<. X&X&X XC.N.Z.N.n.n. XR.@.2 V = 8 8 ",
"n m 1 k K.!.XX XM.k.<.M.M.*XA.7X#X+X Xd.<.g.l.p.6.8.p.U.Y.Y.d.<.M. X#X XC.C.Z.Z.v.N.oXG.' o r = = = ",
"+ m % , W U.XX|.k.>.d. X+XZ.7X7X9XZ.N.f.d.Y.U.U.Y.j.j.k.[.[.q.:.4.v.C.C.C.+X+XC.+X XR. .+.1 r & = - ",
"= = % h O.^ ! / d.d.b.+X&X#X6X7X$X*XC.f.z.|.|.XXXX[.[.>.q.5.m.n.+XC.4.C. XOX%XN.|.XX6.} +.u - & - - ",
"- m - a %.G.i./ l. X$X$X&X#XA.A.#XC.b.f.V.|.XXOXz.M.M.3.N. X*X*X#XZ.v.M.f.z.[.XXXXp.W  .&.1 - V 8 8 ",
"= m - p *.J.J.( ,.z.&X#X+X&X$XA.Z.N.f.M.OXOXXXOX|. Xm.f. X=X=X+X$X*X+X{.k.0.>.g.7.! R %.-.1 % - 8 8 ",
"= = = a *.i.G.p.,.|.1X1X4X1X$XB.b.v.f.M.OXOXXX X|.M.3.v. X*X*X=X9X1X&X X|.k.v 2.u.( } { T ; 3 - = = ",
"7 8 - A *.| i.p.1.z. X&X,XOX+Xn.3.f.d.f.M.XXXXXX|.m.3. X&XqX@XqX9X&X XM.|.k.,.l.s.p.H.{ T : i - 7 8 ",
"= m - S *.G.G.6.1.2.t.b.Y.Y.v.f.f.V.z.d.d.z.z.M.M.z.4. X=X*X+X*X+X X%X|.XXu.6.l.a.a.].L.$.2 % - 7 8 ",
"- 8 - g %.i.u.6.XX|.C.n.Y.k.q.3.|. X|.z.z.d.d.f.d.d.3.N.#X1X*X8X+X XoXXXXX1.y.u.s.a.a.=.X.2 # V - - ",
"m - % D %./ 7.W.XX%X&X+XXX|.f.3.z.[.|.XX|.z.3.d. X XM.b.+X1X*X#X&X{.M.Y.U.,.l.s.a.a.H.#.&.h # - - - ",
"- - i > ^ j.OXXXOX&X@X+XoXXXM.f.|.|.XXoX|.z.k.M.%XN. XC.M.n.N.&X X X|.k.7.1.6.u.u.s.J.L.&.u % - - - ",
"- @ % j J.XXOX X#X$X$X@XoXoXN.v.d.Y.oXXXz.d.z. X X X&X Xf.f.N.1X&X{.d.d.k.k.7.) e.y.i.#...1 - V 8 8 ",
"- @ % F (.OX X XC.@X7XS. X X Xn.<.Y.OXz.d.m. X X+X X+XN.b.h.f.M.f.4.0.z.XXOXoX|.2./ R ~ ] : % 8 - - ",
"= @ % j Q.z.m.C.C.@X7XS. X X X Xd.g.d.d.k. X X X&X+X%X X|.M.3.<.t.b. X X XoX&X&X|.u.^ } ..a - 8 = = ",
"= - i h P.Y.M. XC.$X7XA. X X+X+X|.<.>.d. XN.{.&X+X&X<X X|.z.<.d. XC. X+X%X%X%X+X%Xz.6.| &.a - = 8 8 ",
"7 7 V h P.XXOX X+X@X7XA. XoX X Xz.d.0.d.m.N. X%X+X+X XM.|.z.d.M.C.C.C.+X&X*X*X=XN.[.I.| o.1 = = = - ",
"M 7 m g | U.XX XC.+XA.Z. XXX[.z.d.XXXXf.d.N.+X X+XN.m.f.[.z.u.XX.X+X&X#X@X@X=X*X}.%XR.| ] s e m = = ",
"7 & - 2 Q ) g.M.M.C.C. XXXXXz.0.oX XoX XN.f.m. X{. X X|.z.2.1.OX XC.C.+X=X*X*X*X+X XU. .' s r & = - ",
"7 = 1 d | u.7.>.2.k.W.W.I.,.7.OX+X&X%X X Xz.z.z.XX|.z.0.2.d.g.g.z.M.V. X%X*X=X#XN.|./ L.&.g # - - = ",
"9 & < f F.I.k.d.7.6.( / 6.l.[.&X*X8X=X X XV.d.2.>.0.[.|.|.[.d.<.r.h.|.oX&X&X%X XM.2.( F.-.; 3 8 - = ",
"B 9 3 h %.J.U.z.j.l.8.,.j.oX&X&XZ.@XZ.n. X.Xz.3.M.|. X%X%X#X XV.2.d.z.[.{. X%XOXd.,.i.L.~.; 4 - - 7 ",
"B 6 m S *.F.p.l.j.Y.U.u.d. X+XZ.Z.@XZ.n.C.C.h.3. X X&X*X&X XN.f.d.d.z.z.z.M.M.z.<.u.i.L.&.2 1 % 8 8 ",
"6 5 - A *.F.G.U.U.U.j.7.d.N.&X#XB.Z.C.C.V.h.d.z.f.M. X*X&XN.f.t.z.|. XoX XM.0.>.,.p.i. ...2 o V 8 8 ",
"9 = 3 h *.F.J.I.U.U.U.d.<.3.b.C. X X X|.z.e.2.l.|.|. XOX XM.M.|..X%X&X&X%X|.g.2./ ( H.=.-.: X i 8 7 ",
"8 - 1 d @.F.G.p.p.l.W.j.,.>.t.d. XoX|.l.u.( / 6.j.j.Y.XX|.g.z.|.&X*X$X&X+X X|.Y.6.^ %.&.X.1 % = - = ",
"- % : > [ %.K.i.U.l.j.u.d.N.+XM.<.7.6.1.y.p.s.U.6.6.u.k.g.d.Y.4X+X$X8X*X&X X|.U.Q. .[ o.h % i = = = ",
"- - < ; f ` F.G.T.U.7.2. X1X+X+XoXl.,.u.p.U.p.l.U.7.l.7.>.|.OX|.Z.A.S.@XN.N.|.W.(.=.G : O - e = = = ",
"8 8 - % o > J %.9.6.7.M.qX$XN.&X&X[.k./ u.6.U.l.l.u.d.7.<.k.;X%X@XA.A.@Xn.M.l.G.L.I u < r = = n = = ",
"M 5 9 8 % o > c W U.XX X*X8X@XZ.M. XY.u.,.p.l.l.l.U.d.d.7.2.XX&X+X+X$X+XM.Y.Q.P.I d o % V = + n 8 8 ",
"6 6 6 9 N V <   y F.3XoX|.*X*XN.[.;XXXU.( J.J.U.i.p.6.p.8./ p.;XoXoXoX|.W.Q.L.] > < % - 8 7 n = m 8 ",
"6 B B 5 5 m V o > ` '.3X:X;X;X;X-X!.(. . .~ %.K.P.K.P.K.K. .} P.:X).(.^.'._...k . % w 7 = m m = = = ",
"7 9 9 7 7 7 8 - # u F Y E K K E _ I J F c l H G P G Y H F z > z G L L G G P D X - 7 7 7 7 8 8 8 = = ",
"3 * * 8 N 7 = = 8 3 3 < < 1 4 < ; 2 o p O r @ - @ % - % 3 - % 3 # < 2 1 O O r r m 7 0 7 7 7 - - 8 8 ",
"% 3 - - = = 7 8 = = 8 8 - - 8 - % % V @ - & m = = C 8 8 = & m = V # # i i $ $ & 0 7 9 7 7 - - - - 7 ",
"- - - - = = 7 = 8 8 8 - - - 8 - - - - - - = 7 7 7 8 - - - 7 7 8 - - - - - - - = 7 7 7 7 7 - - - - - ",
"= = = = = = = 7 8 8 7 = = = 7 7 - - - - - - 8 8 8 8 - - - 8 8 8 8 8 - - 8 8 8 - - - - 8 8 - - - - - "
};
