/* XPM */
static char *_6690ffa476e454ac9a1f4ec28d77a5f7GjLA1ueCzFCkWqI[] = {
/* columns rows colors chars-per-pixel */
"50 50 244 2 ",
"   c #0C0809",
".  c #150709",
"X  c #0D100C",
"o  c #18140C",
"O  c #0D0913",
"+  c #150C14",
"@  c #131312",
"#  c #1A1912",
"$  c #191818",
"%  c #0E1412",
"&  c #231A14",
"*  c #261815",
"=  c #2D1311",
"-  c #1C221B",
";  c #24241D",
":  c #38231C",
">  c #1A1821",
",  c #251E23",
"<  c #1E2521",
"1  c #292926",
"2  c #372822",
"3  c #282B38",
"4  c #383739",
"5  c #32322C",
"6  c #481E14",
"7  c #57271C",
"8  c #4E372B",
"9  c #6F3226",
"0  c #643E1A",
"q  c #5F4A37",
"w  c #775136",
"e  c #1C2B49",
"r  c #192D55",
"t  c #1C345A",
"y  c #0D244D",
"u  c #26354B",
"i  c #373846",
"p  c #233455",
"a  c #243A5B",
"s  c #283959",
"d  c #313958",
"f  c #2C2D4D",
"g  c #152D65",
"h  c #1C3465",
"j  c #1C356C",
"k  c #1D3A6C",
"l  c #153569",
"z  c #1D3B74",
"x  c #183776",
"c  c #162D70",
"v  c #253A64",
"b  c #2C3D62",
"n  c #233A6C",
"m  c #273767",
"M  c #233C73",
"N  c #233C7B",
"B  c #273C75",
"V  c #323663",
"C  c #021742",
"Z  c #443A4A",
"A  c #39445A",
"S  c #354655",
"D  c #1C4378",
"F  c #294267",
"G  c #364768",
"H  c #2A4374",
"J  c #24417B",
"K  c #294377",
"L  c #334776",
"P  c #3B5177",
"I  c #3F506E",
"U  c #464456",
"Y  c #4E494E",
"T  c #6F544A",
"R  c #75644E",
"E  c #48566B",
"W  c #524E6F",
"Q  c #665275",
"!  c #586479",
"~  c #706C76",
"^  c #925C36",
"/  c #AE5E54",
"(  c #93704F",
")  c #B87358",
"_  c #8F7168",
"`  c #B9757C",
"'  c #B07076",
"]  c #8F554A",
"[  c #C97C5A",
"{  c #C57B71",
"}  c #CE746D",
"|  c #B78357",
" . c #AB8866",
".. c #B78762",
"X. c #AD9174",
"o. c #B8987B",
"O. c #AC9271",
"+. c #B6A479",
"@. c #8B836E",
"#. c #C58D5E",
"$. c #C68567",
"%. c #C6976A",
"&. c #D68676",
"*. c #C99B76",
"=. c #D59977",
"-. c #D38E6D",
";. c #E59475",
":. c #D7A577",
">. c #D0AB78",
",. c #E3A879",
"<. c #EDB97D",
"1. c #F7CD7B",
"2. c #EFCE7B",
"3. c #1D3D81",
"4. c #233E81",
"5. c #294482",
"6. c #344A82",
"7. c #3C5689",
"8. c #435984",
"9. c #485C93",
"0. c #565E85",
"q. c #586A87",
"w. c #496396",
"e. c #5A6E98",
"r. c #6A748B",
"t. c #757D88",
"y. c #687996",
"u. c #6E7296",
"i. c #5E75A3",
"p. c #6A6D92",
"a. c #87738B",
"s. c #AF7683",
"d. c #79818D",
"f. c #7B899A",
"g. c #798CAF",
"h. c #9A9699",
"j. c #90898E",
"k. c #A9978E",
"l. c #B4A797",
"z. c #B0A08F",
"x. c #8993AA",
"c. c #9498A6",
"v. c #8797B7",
"b. c #8F93A8",
"n. c #97A4AE",
"m. c #98A4BA",
"M. c #A6ABB7",
"N. c #B0ABAD",
"B. c #C79D89",
"V. c #E79B85",
"C. c #C8A989",
"Z. c #D8A887",
"A. c #D8B58A",
"S. c #C5A99A",
"D. c #D7B897",
"F. c #D4AB94",
"G. c #E5AC87",
"H. c #E8B789",
"J. c #F3B989",
"K. c #EBB795",
"L. c #F7B895",
"P. c #F0AD93",
"I. c #C6B5A6",
"U. c #D4B7A7",
"Y. c #C6B6B6",
"T. c #C8ADB1",
"R. c #E9BCA2",
"E. c #EEBDAC",
"W. c #FBC48D",
"Q. c #EBD18D",
"!. c #FBD58A",
"~. c #EAC59B",
"^. c #FECB9B",
"/. c #FAC697",
"(. c #FDD39A",
"). c #EBC888",
"_. c #FFE29D",
"`. c #DBC6A9",
"'. c #D4C2BA",
"]. c #C6C5B0",
"[. c #EACCAB",
"{. c #F9C7A4",
"}. c #FFD4A5",
"|. c #FBD8A6",
" X c #E7CBB3",
".X c #FFE5A7",
"XX c #F6F4B3",
"oX c #DDCB9B",
"OX c #8C9FC7",
"+X c #99A7C5",
"@X c #90A4D2",
"#X c #A9B6CB",
"$X c #B3BAC9",
"%X c #A8B7D7",
"&X c #B0B2CC",
"*X c #A6B9E4",
"=X c #B5BEEC",
"-X c #D0BDC1",
";X c #B8C7DA",
":X c #B8C1C6",
">X c #ABC5EE",
",X c #B7C6E6",
"<X c #B8CDF9",
"1X c #D5CBC8",
"2X c #C4CCDC",
"3X c #D8D5DA",
"4X c #CCCBD1",
"5X c #E6D5D6",
"6X c #EAD5CD",
"7X c #FFF8C4",
"8X c #FCFAD8",
"9X c #EFE9D2",
"0X c #C4CDE1",
"qX c #CAD4E7",
"wX c #D6DDE9",
"eX c #CAD9F7",
"rX c #D6DDF8",
"tX c #E2DDE5",
"yX c #E1D7EA",
"uX c #D9E4E9",
"iX c #DBE4F4",
"pX c #D5E3FE",
"aX c #DBE5FE",
"sX c #DDEAFE",
"dX c #D8E9F9",
"fX c #D5ECFE",
"gX c #E4E4EC",
"hX c #E7E7EA",
"jX c #FEFEEC",
"kX c #FEFAE8",
"lX c #E2E6FD",
"zX c #E2EAFE",
"xX c #E8EAF7",
"cX c #F2EBF5",
"vX c #ECF5FF",
"bX c #E8F5FB",
"nX c #F5F5F4",
"mX c #FDFDF5",
"MX c #F3F5FC",
"NX c #FDF6FB",
"BX c #F5FCFE",
"VX c #FEFEFE",
"CX c #F9F7F4",
"ZX c #F5F0E9",
/* pixels */
"VXVXVXVXVXVXVXVXVXVXVXVXVXVXVXVXNXVXBXBXVXmXBXBXVXVXmXVXVXNXNXVXVXVXVXVXVXVXVXVXVXVXVXVXVXVXVXVXVXVX",
"VXVXVXVXVXVXVXVXVXVXVXVXVXVXVXVXVXVXBXBXmXmXVXVXCXVXkXmXVXVXVXVXVXVXVXVXVXVXVXVXVXVXVXVXVXVXVXVXVXVX",
"VXVXVXVXVXVXVXVXVXVXVXVXVXVXVXVXVXVXmXmXmXVXVXNXVXmX9XkXjXmXBXBXVXVXVXVXVXVXVXVXVXVXVXVXVXVXVXVXVXVX",
"VXVXVXVXVXVXVXVXVXVXVXVXVXVXVXVXVXVXmXjXmXmXZX9XkX8X`.7X8X9XnXBXVXVXVXVXVXVXVXVXVXVXVXVXVXVXVXVXVXVX",
"VXVXVXVXVXVXVXVXVXVXVXVXVXVXVXVXVXVXmXjXjXkX9X[.7X.X!._..XQ.XX8XmXVXVXVXVXVXVXVXVXVXVXVXVXVXVXVXVXVX",
"VXVXVXVXVXVXVXVXVXVXVXVXVXVXVXVXVXVXVXjXjXkX7XQ.2.1.1.1.!.2.7X8XmXVXVXVXVXVXVXmXVXVXVXVXVXVXVXVXVXVX",
"VXVXVXVXVXVXVXVXVXVXVXVXVXVXVXVXVXBXVXmXmXjX8X~.(.!.!.1.2.Q.8XjXVXVXVXVXVXVXmXmXmXmXVXVXVXVXVXVXVXVX",
"VXVXVXVXVXVXVXVXVXVXVXVXVXVXVXVXVXBXBXVXVXmX9XI.C.O.O.+.+.`.ZXVXVXVXVXVXVXVXVXVXmXmXVXVXVXVXVXVXVXVX",
"VXVXVXVXVXVXVXVXVXVXVXVXCXVXVXVXBXBXvX0Xn.~ U Z i 3 u S u s W a.&XlXBXBXMXBXVXVXVXCXVXVXVXVXVXVXVXVX",
"VXVXVXVXVXVXVXVXVXCXVXVXVXVXBXBXBX$X! p u d d V b v a t D H b d f A x.iXBXBXBXBXVXVXVXNXVXVXNXVXVXVX",
"VXVXVXVXVXVXVXVXnXVXVXBXMXBXBX:XU f t F G F n k h b d u a t a P b b p e x.dXBXBXBXBXVXVXVXVXVXVXVXVX",
"VXVXVXVXVXVXVXVXVXVXMXBXBXvXf.u G v n k r y l J F E _ j.~ S a r C v v b s I 0XBXBXBXBXVXVXVXVXCXVXVX",
"VXVXVXVXVXVXVXVXVXVXBXBXdXE e F m j B H n j z k U ].|.Q.oX~ p M L h H n m r e m.BXBXMXVXVXnXVXmXVXVX",
"VXVXVXVXVXVXVXVXVXMXBXsXE b b m 4.N M n j z B b 4 @.>.A.+.R V M M z g K n m b p x.BXBXBXVXVXmXVXVXVX",
"VXVXVXVXVXVXVXVXVXBXvXd e B g 6.x x x M 5.B V d U Z 3 U i f V m g 5.N z M n m s p m.vXBXVXVXVXVXVXVX",
"VXVXVXVXVXVXVXVXBXbXE p L n N x x D D M n V W a.a.~ Q 0.Q Q p.W L c z z B n M m p s #XBXVXVXCXmXVXVX",
"VXVXVXVXNXVXVXBXBXf.u F h z 4.3.x l J P 0.a.h.s.' ` ' ` ` ` { s.p.K K h n h N M M h I dXBXCXVXVXVXVX",
"VXVXVXVXVXNXMXBX2Xs a F l 5.4.x D 7.i.v.$XyXT.s.` { / / / } } ` &XOXq.G t B 5.x 4.g v q.BXVXCXVXVXVX",
"BXVXVXCXVXVXBXvX! s v g J N c 6.7.g.;X0X$Xa.R _ ' ] 9 9 / { { _ h.%X+Xg.I m x 4.3.J v e $XVXVXNXVXVX",
"VXVXVXmXmXVXBX$Xp v n J j z L i.+X#Xn.~ 4 * = : = 6 6 7 7 9 w T Y ~ c.m.x.P j x c J n p ! MXVXVXVXVX",
"VXVXCXmXmXnXBXy.v g N 5.j 6.e.+X+Xr.i O   + + . . . . = = = = = 2 , Y ~ c.g.7.x 3.x k v s 2XMXVXVXVX",
"VXVXCXVXVXBXsXG n N N c K e.+Xx.A > O $ + O O         * $     + * o 2 Y ~ +Xg.6.5.x k F r y.BXBXVXVX",
"VXVXVXBXBXvXv.t M N N N P g.#Xi O + @ X   X +   X     @ $ X @ # & o * 1 E x.,Xi.M z z H t G zXBXVXVX",
"VXVXVXBXBX#Xt n j J M B y.m.E 1 $ # X # ; @ X 1 < - @ - 1 - $ @ ; # 1 1 i E rX%Xw.n K k m v E zXBXVX",
"VXVXVXBX;XI v M J j M P m.d.4 1 1 ; ; 1 - 5 1 1 - - - 1 5 1 ; # ; # 5 > 3 A qXeXv.H B k n n m q.BXVX",
"mXVXVXBXG t n M J l L y.#XU 4 5 1 - 1 1 ; ; $ - X $ # # ; & & 5 - - X $ 3 3 qXzX%X0.n n B B n a c.VX",
"VXNXBX&Xe m 6.M z k H %X;X3 1 ; 1 ; 1 1 1 #   o * * * * : : 2 2 # % $ $ 3 i wXzXeXy.v H M j n p i gX",
"VXVXBX! d v n g k H 8.eX0XU ; &   o & & & 2 : 8 T T 8 T X.T 8 q 5 ; # , + c.wXlXpXv.L B j n n a 3 4X",
"VXVXVXt.e p y L k H g.eXiX! 1 2 2 R R R q w R O.D.[.F.X. . .o.X.z._ Y # Z tXxXdXrX*Xw.n M n y e 3 N.",
"VXBXBXBX2X;Xp h n H @XpXsXc.@ o ( C.F.D.D.A.C.C.~.|.A.Z.A. . .*.A.C.k.: N.gXxXdXsX>X9.g B L r.0X3XVX",
"VXVXVXBXBXwXp v n 6.@XsXaX2X4 o X.[.F. .( w ..Z.~.}./.A.( 0 w ( | >.C.T -XhXiXsXfX>Xw.K H r f.BXBXVX",
"VXVXVXNXBXvXE b n 7.*XpXlXxXh.T o.R.Z...%.^ %.:.J./.:.Z.*.) %.*.G.L.R._ T.cXiXfXfX<Xw.z n p M.VXMXVX",
"VXVXVXVXBXBXq.a n L >XsXlXtXI.C.B.{.{.K.H.:.,.J.J.W.J.,.,.,.,.J.L.P.L.X.'.hXiXsXsX<X9.J k r uXVXVXVX",
"VXVXVXVXVXBXn.p v L *XpXxXZX6XU.B.L.{.{.}.^././.W.W.<.<.J.W.J./.L.P.P.o.'.hXiXsXzX=X9.J h G MXVXVXVX",
"VXVXVXVXVXVXqXs v L @XsXxXhX6XU.Z.L.K.L.}.}.(./.(.^.W.J.W.^.^.^.L.P.Z.B.1XgXiXsXaX=X8.h v y.BXVXVXVX",
"BXVXVXVXVXVXBX! p G OXsXlXtX5XU.F.G.G.L.}..X|.(./.^./.H.H.^.}.^.L.P.B.U.3XxXzXsXrX*X8.v s #XVXVXVXVX",
"BXVXVXVXVXVXBX#Xe a g.pXaXxXhXY.F.Z.K.^..X.X(.).>.>.:.*.:./.(./.L.G.S.1XtXxXzXaXaXOXG F I vXVXVXVXVX",
"BXVXVXVXVXVXVXzX! e q.eXzXlXxX5XE.F.K.}..X_.!.<.%.*.%...=.J.^./.L.F.I.gXlXzXlXaXeXg.F e M.BXBXVXVXVX",
"VXVXVXVXVXVXVXBX$Xd G ,XsXaXrXcX6XS.D.|.|._.!.).:.G.Z.=.=.,.H.W.K.C.Y.xXlXlXaXlX,Xq.S E BXVXMXVXVXVX",
"VXBXVXVXmXCXVXBXBX! A +XeXbXsXiXcXT.U.[.}.).:.#.=.G.V.=.-.| #.H.H.z.4XzXaXaXlXlX%XE u ;XBXVXVXVXVXVX",
"VXVXVXVXVXVXVXVXBXzXA y.0XsXsXzXxX3XI.U.[.:.) -.&.&.&.$.$.) | :.>.z.3XaXzXrXxXrXv.u n.BXnXVXVXBXVXVX",
"VXVXVXVXVXVXVXVXVXBXqXA #XqXsXpXzXgXY.l.R.K.=.[ [ } } &.$.$.=.>.o.l.gXaXpXzXrX0XE x.xXBXCXVXVXVXVXVX",
"VXVXVXVXVXVXVXVXVXVXVX$X! qXdXzXdXiX1XI.C.Z.,.;.;.;.V.;.$.%.:.%.z.l.gXaXsXrXlXb.d.xXBXBXVXVXNXVXVXVX",
"VXVXVXVXVXVXVXVXVXVXVXBX0Xt.$XdXdXgX3XI.C.K.J.,.-.[ [ ) #.:.>.+.O.1XMXiXsXaXb.t.cXVXBXBXBXBXVXVXVXVX",
"VXVXVXVXVXVXVXVXVXVXBXVXBXwXd.n.uXuXtXI.o.C.H./.J.G.:.:.~.~.>.O.k.1XgXlXwXt.M.VXVXmXVXVXBXVXVXmXVXVX",
"VXVXVXVXVXVXVXVXVXCXVXnXVXVXxXh.t.M.tX'.l.C.D.~.~.}.~.~.~.C.X.k.Y.3X3Xc.t.2XBXVXmXmXVXVXBXBXVXVXVXVX",
"VXVXVXVXVXVXVXVXVXNXVXVXVXVXNXVXiXj.~ h.1X'.S.`.[.[. X`.U.U.'.5XN.h.~ M.BXBXBXVXmXmXVXBXBXBXCXVXVXVX",
"VXVXVXVXVXVXVXVXVXVXVXCXVXVXNXVXMXVXVXM.~ a.j.l.I.I.I.Y.N.k.j.~ a.3XVXVXBXBXBXVXmXmXVXBXBXBXVXVXVXVX",
"VXVXVXVXVXVXVXVXVXVXVXVXVXVXVXVXVXVXVXVXVXCXtX1XN.h.h.h.N.3XcXVXVXVXVXVXVXVXVXVXVXVXVXVXVXVXVXVXVXVX",
"VXVXVXVXVXVXVXVXVXVXVXVXVXVXVXVXVXVXVXVXVXVXBXMXVXBXBXBXVXVXVXVXVXVXVXVXVXVXVXVXVXVXVXVXVXVXVXVXVXVX"
};
